<svg width="20" height="20" viewBox="0 0 20 20" fill="none" xmlns="http://www.w3.org/2000/svg">
<path d="M10.3999 14.8011L10.7498 15.4645L10.7498 15.4645L10.3999 14.8011ZM9.60079 14.8011L9.2509 15.4645L9.2509 15.4645L9.60079 14.8011ZM15.0837 7.49999C15.0837 9.28646 14.1903 10.7606 13.0733 11.9068C11.9563 13.0531 10.674 13.8086 10.05 14.1378L10.7498 15.4645C11.4421 15.0994 12.8767 14.2578 14.1475 12.9537C15.4183 11.6497 16.5837 9.82042 16.5837 7.49999H15.0837ZM10.0003 2.41666C12.8078 2.41666 15.0837 4.69254 15.0837 7.49999H16.5837C16.5837 3.86412 13.6362 0.916656 10.0003 0.916656V2.41666ZM4.91699 7.49999C4.91699 4.69254 7.19288 2.41666 10.0003 2.41666V0.916656C6.36445 0.916656 3.41699 3.86412 3.41699 7.49999H4.91699ZM9.95069 14.1378C9.32663 13.8086 8.04439 13.0531 6.92738 11.9068C5.81032 10.7606 4.91699 9.28646 4.91699 7.49999H3.41699C3.41699 9.82042 4.58237 11.6497 5.85312 12.9537C7.12391 14.2578 8.55857 15.0994 9.2509 15.4645L9.95069 14.1378ZM10.05 14.1378C10.017 14.1552 9.98367 14.1552 9.95068 14.1378L9.2509 15.4645C9.72182 15.7129 10.2788 15.7129 10.7498 15.4645L10.05 14.1378ZM11.7503 7.49999C11.7503 8.46649 10.9668 9.24999 10.0003 9.24999V10.75C11.7953 10.75 13.2503 9.29492 13.2503 7.49999H11.7503ZM10.0003 5.74999C10.9668 5.74999 11.7503 6.53349 11.7503 7.49999H13.2503C13.2503 5.70506 11.7953 4.24999 10.0003 4.24999V5.74999ZM8.25033 7.49999C8.25033 6.53349 9.03383 5.74999 10.0003 5.74999V4.24999C8.2054 4.24999 6.75033 5.70506 6.75033 7.49999H8.25033ZM10.0003 9.24999C9.03383 9.24999 8.25033 8.46649 8.25033 7.49999H6.75033C6.75033 9.29492 8.2054 10.75 10.0003 10.75V9.24999Z" fill="white"/>
<path d="M16.4952 14.5833C17.1535 14.9634 17.5 15.3945 17.5 15.8333C17.5 16.2722 17.1535 16.7033 16.4952 17.0833C15.8369 17.4634 14.8901 17.779 13.75 17.9984C12.6099 18.2178 11.3165 18.3333 10 18.3333C8.68348 18.3333 7.39014 18.2178 6.25 17.9984C5.10986 17.779 4.16307 17.4634 3.50481 17.0833C2.84655 16.7033 2.5 16.2722 2.5 15.8333C2.5 15.3945 2.84655 14.9634 3.50481 14.5833" stroke="white" stroke-width="1.5" stroke-linecap="round"/>
</svg>
