<svg width="39" height="29" viewBox="0 0 39 29" fill="none" xmlns="http://www.w3.org/2000/svg">
<g clip-path="url(#clip0_442_1018)">
<path d="M26.6737 17.009C25.4715 16.753 24.4748 16.3537 23.5604 15.77C20.6834 13.9165 19.1627 10.3733 19.8203 7.04526C20.519 3.51238 23.1802 0.83967 26.6018 0.163814C31.7598 -0.84997 36.0444 2.7546 36.815 7.30127C37.2363 9.77941 36.8664 12.2371 36.1677 14.6128C34.5237 20.2757 30.722 23.8598 25.2146 25.7542C24.9167 25.8566 24.5981 25.959 24.2899 25.9897C23.4884 26.0614 22.8822 25.7132 22.5226 25.0067C22.163 24.3001 22.276 23.6242 22.7589 22.9996C23.4884 22.0575 24.2591 21.1461 24.9064 20.1528C25.5537 19.1697 26.0675 18.1047 26.6737 17.009Z" fill="#F5FBD7"/>
<path d="M6.94609 17.0809C6.1652 16.7942 5.49733 16.5996 4.88083 16.3129C1.50038 14.7461 -0.421027 11.1518 0.0824447 7.38341C0.555092 3.84028 3.40125 0.860365 6.93582 0.174268C12.2069 -0.859997 16.6662 2.90842 17.1491 7.54725C17.8992 14.7871 14.6317 22.4059 6.17547 25.5291C5.7953 25.6725 5.40485 25.7954 5.00413 25.9183C4.19241 26.164 3.40124 25.8773 2.93887 25.2014C2.4765 24.5256 2.52787 23.7064 3.05189 23.0305C3.77114 22.0987 4.54176 21.1975 5.1788 20.2144C5.8364 19.2109 6.36042 18.1357 6.94609 17.0809Z" fill="#F5FBD7"/>
</g>
<g clip-path="url(#clip1_442_1018)">
<path fill-rule="evenodd" clip-rule="evenodd" d="M10.3875 19.5449L9.82035 20.5664C9.66283 20.8501 9.50365 21.1476 9.34063 21.4524C8.93427 22.212 8.50412 23.0161 8.01665 23.7604C7.5275 24.5149 6.95056 25.2412 6.41046 25.9212C6.21466 26.1677 6.0237 26.4081 5.84352 26.6415L5.84218 26.6433C5.55839 27.0093 5.57008 27.3531 5.76421 27.6368C5.97951 27.9515 6.31849 28.0805 6.71296 27.9616C7.11152 27.8394 7.47505 27.7245 7.82262 27.5935L7.82899 27.5911L7.829 27.5911C15.7813 24.6539 18.8662 17.5211 18.1544 10.6503C17.7295 6.57102 13.7978 3.23934 9.12836 4.15556L9.12637 4.15595C6.00541 4.76176 3.48845 7.40624 3.07366 10.5156L3.07364 10.5158C2.62607 13.8658 4.3325 17.0296 7.30134 18.4056L7.30255 18.4062C7.67204 18.578 8.03395 18.7026 8.48058 18.8563C8.72124 18.9392 8.98649 19.0305 9.29077 19.1422L10.3875 19.5449ZM19.1491 10.5473C19.8992 17.7871 16.6317 25.4059 8.17547 28.5291C7.7953 28.6725 7.40485 28.7954 7.00413 28.9183C6.19241 29.164 5.40124 28.8773 4.93887 28.2014C4.4765 27.5256 4.52787 26.7064 5.05189 26.0305C5.2505 25.7732 5.45303 25.5182 5.65558 25.2632C6.18654 24.5947 6.71767 23.9261 7.1788 23.2144C7.64114 22.5089 8.03745 21.7679 8.43558 21.0235C8.44514 21.0056 8.45469 20.9878 8.46424 20.9699C8.62288 20.6733 8.78207 20.3763 8.94609 20.0809C8.69144 19.9874 8.44881 19.9037 8.21607 19.8234C8.13941 19.797 8.06382 19.7709 7.98923 19.745C7.5958 19.6082 7.23007 19.4753 6.88083 19.3129C3.50038 17.7461 1.57897 14.1518 2.08244 10.3834C2.55509 6.84028 5.40125 3.86036 8.93582 3.17427C14.2069 2.14 18.6662 5.90842 19.1491 10.5473Z" fill="#00ADEE"/>
<path fill-rule="evenodd" clip-rule="evenodd" d="M30.1344 19.5449L29.5672 20.5664C29.4097 20.8501 29.2505 21.1476 29.0875 21.4524C28.6811 22.212 28.2509 23.0161 27.7635 23.7604C27.2743 24.5149 26.6974 25.2412 26.1573 25.9212C25.9615 26.1677 25.7705 26.4081 25.5903 26.6415L25.589 26.6433C25.3052 27.0093 25.3169 27.3531 25.511 27.6368C25.7263 27.9515 26.0653 28.0805 26.4598 27.9616C26.8583 27.8394 27.2219 27.7245 27.5695 27.5935L27.5758 27.5911L27.5758 27.5911C35.5282 24.6539 38.6131 17.5211 37.9012 10.6503C37.4763 6.57102 33.5446 3.23934 28.8752 4.15556L28.8732 4.15595C25.7522 4.76176 23.2353 7.40624 22.8205 10.5156L22.8205 10.5158C22.3729 13.8658 24.0793 17.0296 27.0482 18.4056L27.0494 18.4062C27.4189 18.578 27.7808 18.7026 28.2274 18.8563C28.4681 18.9392 28.7333 19.0305 29.0376 19.1422L30.1344 19.5449ZM38.8959 10.5473C39.646 17.7871 36.3786 25.4059 27.9223 28.5291C27.5421 28.6725 27.1517 28.7954 26.751 28.9183C25.9392 29.164 25.1481 28.8773 24.6857 28.2014C24.2233 27.5256 24.2747 26.7064 24.7987 26.0305C24.9973 25.7732 25.1999 25.5182 25.4024 25.2632C25.9334 24.5947 26.4645 23.9261 26.9256 23.2144C27.388 22.5089 27.7843 21.7679 28.1824 21.0235C28.192 21.0056 28.2015 20.9878 28.2111 20.9699C28.3697 20.6733 28.5289 20.3763 28.6929 20.0809C28.4383 19.9874 28.1956 19.9037 27.9629 19.8234C27.8862 19.797 27.8106 19.7709 27.7361 19.745C27.3426 19.6082 26.9769 19.4753 26.6277 19.3129C23.2472 17.7461 21.3258 14.1518 21.8293 10.3834C22.3019 6.84028 25.1481 3.86036 28.6826 3.17427C33.9537 2.14 38.413 5.90842 38.8959 10.5473Z" fill="#00ADEE"/>
</g>
<defs>
<clipPath id="clip0_442_1018">
<rect width="37" height="26" fill="white"/>
</clipPath>
<clipPath id="clip1_442_1018">
<rect width="37" height="26" fill="white" transform="translate(2 3)"/>
</clipPath>
</defs>
</svg>
